<?xml version="1.0" standalone="no"?>
<!DOCTYPE svg PUBLIC "-//W3C//DTD SVG 20010904//EN"
 "http://www.w3.org/TR/2001/REC-SVG-20010904/DTD/svg10.dtd">
<svg version="1.0" xmlns="http://www.w3.org/2000/svg"
 width="1239.000000pt" height="1600.000000pt" viewBox="0 0 1239.000000 1600.000000"
 preserveAspectRatio="xMidYMid meet">

<g transform="translate(0.000000,1600.000000) scale(0.100000,-0.100000)"
fill="#000000" stroke="none">
<path d="M10450 14346 c-96 -35 -264 -100 -373 -145 -109 -44 -200 -81 -202
-81 -2 0 -43 -18 -92 -41 -48 -23 -108 -49 -133 -59 -46 -18 -74 -31 -340
-153 -164 -75 -803 -393 -955 -475 -293 -157 -352 -190 -455 -250 -47 -28
-130 -76 -185 -108 -265 -153 -724 -446 -980 -628 -44 -31 -100 -71 -125 -88
-59 -42 -321 -239 -435 -327 -414 -320 -956 -847 -1224 -1189 -41 -52 -40 -54
54 -159 39 -42 113 -125 165 -183 52 -58 134 -148 182 -201 48 -53 88 -98 88
-101 0 -3 -60 -8 -132 -12 -73 -4 -146 -9 -163 -10 -139 -14 -185 -20 -290
-37 -202 -34 -378 -78 -535 -134 -41 -14 -82 -28 -90 -30 -21 -5 -201 -81
-290 -122 -223 -104 -512 -284 -714 -445 -33 -26 -61 -47 -62 -45 -2 1 -5 209
-7 462 -3 253 -10 519 -16 590 -19 225 -64 635 -75 692 -3 11 -7 43 -11 70
-14 100 -79 476 -106 608 -22 109 -26 128 -94 410 -125 522 -328 1145 -500
1538 -75 171 -83 167 -197 -99 -195 -460 -335 -915 -414 -1344 -34 -186 -34
-190 -63 -440 -35 -302 -35 -809 0 -1100 6 -52 15 -129 19 -170 17 -151 73
-475 112 -640 11 -47 21 -93 23 -104 5 -20 44 -174 76 -296 83 -314 293 -952
419 -1275 49 -124 48 -118 30 -348 -21 -262 5 -510 89 -852 79 -322 90 -414
100 -840 7 -302 10 -335 30 -389 45 -126 138 -261 265 -388 l76 -76 0 -86 c0
-217 -71 -685 -126 -828 -7 -21 -33 -55 -56 -75 -23 -21 -58 -56 -77 -77 -20
-21 -41 -44 -47 -50 -58 -62 -162 -238 -185 -315 -7 -23 -16 -41 -20 -41 -5 0
-44 25 -88 55 -98 66 -151 83 -195 62 -22 -10 -39 -11 -59 -5 -41 14 -76 2
-98 -36 -11 -19 -27 -37 -35 -40 -8 -3 -21 -21 -29 -41 -58 -136 83 -571 301
-931 110 -182 328 -496 410 -590 11 -12 35 -41 54 -65 118 -145 307 -338 480
-488 47 -41 87 -77 90 -80 3 -3 23 -20 45 -37 105 -80 205 -121 294 -122 53 0
68 4 108 32 56 37 92 103 100 180 l6 53 110 63 c217 124 636 330 828 407 l89
35 78 -61 c42 -33 143 -109 224 -168 104 -76 149 -115 153 -133 15 -61 40
-117 63 -143 44 -47 115 -31 168 38 27 36 27 36 48 16 52 -48 124 -30 178 45
27 38 33 42 47 31 49 -42 100 -19 132 60 12 29 23 53 24 53 2 0 24 -9 50 -20
60 -26 90 -25 116 1 19 19 21 29 16 83 -3 33 -13 81 -23 106 -20 56 -20 140 0
260 9 51 19 133 23 182 7 103 -8 90 158 139 194 58 512 138 562 142 15 1 49
-27 120 -103 l100 -105 23 -100 c12 -55 32 -118 44 -140 18 -34 27 -40 57 -43
37 -3 56 11 100 78 l16 25 46 -43 c36 -32 54 -42 81 -42 41 0 83 32 111 83
l19 35 40 -33 c51 -40 79 -55 106 -55 26 0 77 54 85 92 9 40 19 42 70 13 85
-47 127 -25 125 66 -2 48 8 76 82 244 46 105 95 219 107 255 38 107 50 130 74
134 359 70 864 155 928 156 22 0 31 -10 63 -74 38 -77 93 -141 134 -157 35
-13 89 -11 121 6 119 61 269 360 366 730 31 118 28 104 54 230 72 350 101 669
101 1103 1 306 -10 482 -40 663 -30 180 -73 259 -143 259 -15 0 -38 7 -50 15
-13 8 -41 14 -63 14 -21 0 -54 2 -72 6 -29 7 -36 3 -67 -31 -20 -21 -58 -85
-86 -141 -43 -87 -54 -103 -74 -103 -13 0 -26 4 -29 9 -3 5 -41 17 -83 27
-105 25 -264 23 -355 -4 l-68 -19 -57 76 c-69 92 -165 204 -248 291 -77 80
-186 226 -180 243 2 7 16 62 30 122 14 61 37 155 51 209 14 55 29 118 33 140
15 73 103 458 122 530 8 30 8 42 -3 52 -14 14 -120 46 -427 130 -91 25 -172
49 -182 54 -18 10 -180 234 -186 259 -2 9 36 88 85 176 49 88 102 185 119 215
81 147 222 367 295 461 15 20 28 43 28 51 0 14 -196 309 -284 428 -66 89 -236
343 -236 353 0 15 423 213 829 388 141 61 270 117 286 124 17 7 59 25 95 39
36 15 74 31 85 36 40 18 363 148 520 210 88 34 183 71 210 83 28 11 77 30 110
42 33 12 137 50 230 84 217 80 501 179 680 237 77 26 144 50 149 55 6 5 5 46
-3 106 -7 54 -17 136 -22 183 -5 47 -11 96 -14 110 -3 22 -50 416 -90 765 -8
72 -17 139 -19 150 -3 11 -8 52 -11 90 -4 39 -11 99 -15 135 -45 343 -159
1404 -172 1605 -5 88 -15 166 -20 173 -16 19 -31 15 -218 -52z m156 -41 c7
-113 102 -1047 111 -1090 8 -39 11 -73 18 -165 3 -41 10 -96 15 -123 6 -26 9
-51 8 -55 -1 -4 2 -27 5 -52 4 -25 9 -65 11 -90 3 -25 14 -121 25 -215 11 -93
39 -323 61 -510 22 -187 44 -374 49 -415 6 -41 12 -93 14 -115 3 -22 13 -106
23 -188 11 -92 14 -150 8 -156 -5 -5 -91 -36 -191 -70 -296 -100 -614 -214
-768 -274 -49 -19 -110 -42 -135 -51 -51 -17 -268 -103 -500 -196 -201 -81
-852 -357 -955 -405 -27 -13 -75 -34 -105 -48 -205 -91 -512 -241 -539 -264
l-25 -20 47 -74 c26 -41 81 -121 121 -179 147 -209 202 -287 288 -414 82 -122
87 -131 73 -150 -87 -119 -247 -378 -375 -611 -119 -214 -103 -203 -146 -109
-41 88 -218 524 -241 594 -33 97 -157 409 -189 475 -19 39 -59 102 -89 140
-56 71 -71 94 -64 98 19 13 449 336 464 348 11 9 88 71 170 136 185 147 326
267 513 438 79 71 169 152 199 179 158 142 497 501 694 736 474 566 791 1120
1009 1766 39 115 39 144 0 144 -34 0 -525 -171 -645 -225 -16 -7 -75 -32 -130
-54 -122 -51 -103 -42 -315 -145 -283 -137 -411 -208 -700 -387 -110 -68 -423
-291 -543 -385 -621 -494 -1186 -1126 -1717 -1921 -83 -124 -81 -123 -180
-103 -55 12 -216 30 -323 36 -43 3 -86 8 -95 12 -10 4 -126 126 -258 271 -291
322 -293 324 -294 335 -1 20 296 350 476 530 239 240 448 422 849 740 43 34
285 214 315 234 14 9 57 40 95 68 130 95 518 350 740 486 336 206 566 337
1010 573 209 111 953 475 972 475 3 0 27 11 55 25 62 31 348 154 533 229 77
32 149 61 160 66 42 19 256 100 264 100 5 0 28 9 52 20 45 20 74 22 75 5z
m-1482 -1513 c14 -43 35 -130 40 -167 4 -23 8 -52 11 -65 33 -168 33 -515 1
-677 -3 -11 -8 -43 -11 -70 -4 -26 -13 -71 -21 -99 -8 -28 -16 -64 -19 -80 -2
-16 -13 -60 -24 -99 -58 -191 -64 -206 -130 -284 -62 -73 -528 -545 -621 -627
-290 -259 -657 -564 -885 -735 -33 -25 -124 -93 -202 -152 -78 -59 -148 -109
-155 -112 -7 -3 -38 15 -68 40 -140 115 -205 142 -205 85 0 -19 15 -35 70 -72
97 -66 204 -165 264 -245 48 -63 118 -195 136 -253 4 -14 22 -63 40 -110 18
-47 67 -175 110 -285 42 -110 80 -209 85 -220 5 -11 26 -60 46 -110 20 -49 46
-115 59 -145 50 -124 101 -220 162 -308 35 -52 63 -95 61 -97 -2 -2 -39 6 -83
17 -106 27 -293 29 -384 5 -381 -102 -591 -538 -455 -944 92 -272 339 -476
607 -500 39 -3 76 -6 82 -7 43 -4 177 19 230 39 36 14 65 22 65 19 0 -22 -189
-328 -274 -444 -14 -19 -34 -46 -43 -59 -42 -58 -96 -123 -182 -219 -65 -72
-90 -107 -83 -114 13 -13 61 14 130 70 173 142 551 729 636 990 10 28 22 52
26 52 5 0 33 -35 62 -77 123 -184 234 -328 342 -444 34 -36 86 -96 116 -133
30 -38 63 -78 74 -90 27 -31 78 -107 74 -110 -1 -1 -37 -22 -78 -47 -98 -58
-114 -73 -100 -99 16 -29 33 -25 118 27 97 58 182 97 251 113 108 25 267 11
375 -34 l34 -14 -43 -125 c-68 -194 -125 -422 -170 -677 -8 -47 -17 -96 -20
-110 -3 -14 -7 -56 -10 -95 -3 -38 -11 -94 -16 -123 -12 -58 -2 -82 31 -82 29
0 36 20 48 142 7 65 16 139 22 165 5 27 13 75 19 108 46 272 139 606 228 819
38 93 91 198 113 226 l20 25 -1 -120 c0 -84 -7 -156 -23 -240 -13 -66 -21
-125 -19 -132 8 -19 44 -27 58 -12 16 17 53 246 63 388 8 114 22 138 43 74 9
-25 14 -113 15 -257 2 -233 6 -250 49 -222 17 11 21 30 28 127 5 68 4 162 -2
233 -13 151 -7 166 28 65 32 -92 62 -351 76 -669 6 -125 -17 -554 -41 -770
-37 -337 -103 -645 -191 -890 -100 -279 -214 -460 -290 -460 -40 0 -84 43
-122 119 -25 50 -64 156 -76 207 -29 126 -44 198 -50 242 -8 60 -30 80 -61 58
-17 -13 -18 -20 -6 -92 18 -121 22 -137 42 -210 21 -72 19 -84 -10 -84 -17 0
-461 -72 -515 -83 -11 -3 -42 -8 -70 -12 -27 -4 -75 -13 -105 -20 -30 -8 -73
-16 -95 -18 -22 -3 -55 -8 -72 -12 -38 -9 -39 -7 -16 66 9 30 18 59 19 64 1 6
10 37 19 70 10 33 21 76 25 95 93 417 115 623 113 1060 -1 383 -35 701 -119
1105 -8 39 -19 88 -23 110 -13 66 -51 208 -61 233 -11 25 -42 29 -60 7 -11
-13 -10 -26 3 -73 59 -204 121 -525 152 -792 8 -74 21 -178 27 -230 14 -105
17 -617 6 -720 -41 -351 -59 -467 -103 -659 -59 -250 -175 -581 -289 -824 -70
-149 -76 -165 -69 -197 7 -39 -4 -38 -76 2 -67 37 -87 33 -97 -19 -10 -55 -32
-103 -47 -103 -7 0 -39 27 -72 60 -73 74 -91 75 -119 4 -26 -63 -53 -104 -68
-104 -6 0 -40 30 -75 66 -35 36 -69 64 -76 62 -6 -2 -26 -31 -44 -63 -17 -33
-36 -61 -41 -63 -11 -3 -36 72 -53 159 -12 59 -17 68 -105 162 -145 156 -234
287 -343 505 -101 201 -205 486 -275 753 -45 173 -51 189 -75 189 -47 0 -46
-19 8 -225 100 -378 284 -817 428 -1016 41 -57 40 -57 -82 -84 -99 -21 -177
-42 -370 -96 -82 -23 -159 -44 -170 -46 -19 -4 -20 1 -20 189 0 261 -14 470
-40 610 -3 13 -7 34 -9 48 -3 14 -7 41 -10 60 -7 49 -52 238 -83 345 -29 103
-46 129 -74 114 -24 -12 -24 -48 0 -120 26 -77 56 -201 85 -349 73 -369 78
-894 14 -1280 -25 -155 -25 -150 1 -235 24 -80 28 -140 9 -132 -72 28 -115 43
-128 43 -8 -1 -24 -28 -38 -66 -14 -36 -27 -67 -29 -70 -3 -3 -15 8 -27 23
-34 43 -62 34 -110 -37 -60 -87 -69 -90 -115 -37 -45 53 -58 49 -114 -32 -21
-31 -46 -58 -55 -62 -21 -8 -39 17 -52 70 -20 82 -25 88 -117 154 -281 202
-506 394 -748 636 -568 568 -970 1183 -1258 1925 -24 63 -50 132 -56 152 -14
43 -35 63 -56 54 -29 -11 -27 -38 10 -139 116 -316 326 -758 460 -967 201
-316 374 -555 545 -754 135 -155 400 -427 517 -529 51 -44 93 -83 93 -87 0 -4
-33 -21 -72 -38 -233 -97 -704 -331 -848 -420 -45 -28 -47 -28 -55 10 -12 52
-34 88 -55 88 -31 0 -39 -27 -23 -79 23 -71 22 -208 -2 -249 -73 -123 -219
-88 -446 107 -276 238 -535 517 -720 778 -312 440 -460 723 -540 1033 -23 92
-33 186 -20 194 6 4 13 -6 17 -21 18 -75 188 -413 222 -440 19 -16 52 1 52 26
0 10 -23 58 -51 107 -146 252 -216 480 -132 426 7 -4 19 -28 28 -52 21 -60
115 -235 182 -338 44 -68 57 -83 76 -80 36 5 32 40 -14 114 -115 188 -200 357
-185 371 43 43 488 -354 696 -621 133 -170 123 -160 148 -147 12 6 22 19 22
28 0 40 -227 309 -419 496 -91 89 -131 134 -131 150 0 37 63 178 114 257 27
41 95 122 152 179 96 97 106 109 124 170 57 191 119 586 120 756 0 79 11 97
42 68 67 -61 383 -240 533 -301 179 -73 357 -128 525 -162 135 -28 154 -30
170 -20 20 12 3 28 -43 41 -345 93 -577 178 -812 297 -120 61 -235 130 -235
141 0 4 35 7 77 6 98 -1 237 27 317 62 95 43 207 141 272 238 37 55 86 178
100 253 36 191 -3 397 -100 529 -135 183 -324 285 -546 295 -253 12 -398 -41
-562 -204 -49 -48 -88 -92 -88 -98 0 -5 -4 -10 -8 -10 -4 0 -13 69 -20 153
-10 135 -18 206 -37 327 -7 47 -56 263 -61 271 -2 4 -15 65 -29 135 -13 71
-29 152 -34 179 -18 88 -26 206 -25 360 2 240 27 407 94 633 16 56 30 106 30
112 0 15 -43 29 -56 19 -11 -9 -33 -74 -69 -202 -10 -33 -20 -55 -24 -50 -15
17 -179 485 -280 798 -73 227 -162 536 -181 625 -4 19 -15 63 -24 97 -17 65
-75 336 -82 388 -3 17 -11 62 -18 100 -8 39 -17 93 -21 120 -4 28 -8 59 -10
70 -13 72 -45 382 -50 491 l-7 131 37 94 c136 341 337 672 562 925 95 107 92
104 178 180 109 95 196 157 205 148 12 -13 115 -425 159 -639 19 -92 67 -346
77 -405 2 -14 8 -52 14 -85 41 -241 83 -608 112 -970 7 -96 13 -342 13 -612
l0 -453 -123 -123 c-99 -100 -123 -129 -120 -148 7 -52 37 -34 177 103 159
156 215 205 371 320 337 249 783 463 1175 563 139 35 226 54 274 60 24 3 63
10 85 15 164 35 629 44 861 16 170 -21 279 -39 395 -65 157 -36 157 -36 169
-14 17 33 -7 51 -98 72 -46 11 -85 22 -87 24 -5 4 255 378 376 542 246 333
487 613 789 916 418 419 751 684 1216 971 190 117 537 307 562 308 6 0 14 -8
17 -18z m-1329 -4946 c33 -9 84 -29 114 -44 50 -25 58 -35 103 -116 55 -100
114 -252 128 -328 19 -98 12 -211 -20 -338 -32 -126 -67 -231 -106 -318 -23
-50 -29 -55 -99 -87 -119 -55 -184 -68 -305 -62 -130 6 -215 32 -313 96 -204
135 -317 344 -317 589 1 302 170 544 433 617 69 20 298 14 382 -9z m505 -162
c85 -25 171 -49 190 -53 69 -16 69 -17 55 -72 -7 -27 -13 -52 -13 -54 -1 -18
-24 -112 -30 -121 -4 -7 -22 -14 -41 -15 -34 -4 -35 -4 -55 60 -30 92 -41 95
-124 38 -38 -26 -71 -47 -75 -47 -3 0 -15 30 -28 68 -12 37 -40 105 -63 152
-22 47 -42 89 -44 94 -7 13 56 -1 228 -50z m55 -333 c21 -64 31 -72 78 -61 20
4 39 4 42 0 9 -14 -125 -593 -140 -609 -7 -6 -4 -11 -76 99 -100 153 -93 126
-63 242 20 78 27 129 28 210 l1 108 50 34 c28 18 53 32 57 30 3 -2 14 -26 23
-53z m-4935 -820 c218 -63 362 -193 424 -383 105 -316 -45 -665 -337 -787
-148 -61 -409 -63 -499 -4 -58 39 -220 211 -270 288 -97 150 -116 209 -116
372 1 124 -2 113 62 237 24 47 150 176 205 211 58 36 161 74 230 85 80 13 225
4 301 -19z"/>
<path d="M6560 8726 c-147 -41 -253 -150 -286 -295 -20 -84 -12 -214 17 -284
36 -87 115 -169 202 -212 277 -133 578 7 628 292 14 81 -1 173 -42 257 -93
190 -321 297 -519 242z m76 -130 c30 -14 64 -40 80 -62 27 -35 29 -44 29 -124
0 -78 -3 -91 -28 -129 -31 -47 -109 -91 -163 -91 -82 0 -175 52 -208 117 -32
64 -16 172 36 246 48 68 160 87 254 43z"/>
<path d="M3440 7789 c-221 -60 -377 -310 -342 -550 22 -155 98 -264 222 -323
55 -26 80 -31 162 -34 79 -4 108 0 161 17 130 44 254 149 305 260 62 135 26
360 -79 490 -94 117 -284 179 -429 140z m260 -69 c67 -34 117 -117 125 -207 7
-73 -22 -134 -84 -178 -38 -27 -50 -30 -119 -30 -91 0 -158 27 -194 78 -33 46
-38 173 -10 238 22 50 69 100 104 111 50 14 139 8 178 -12z"/>
<path d="M5106 7433 c-35 -9 -81 -40 -84 -56 -4 -19 35 -46 83 -57 32 -7 38
-5 64 25 37 42 48 75 30 86 -15 9 -61 10 -93 2z"/>
<path d="M6203 7235 c-81 -81 -155 -107 -363 -130 -108 -12 -163 -13 -276 -4
-128 9 -152 8 -250 -10 -135 -26 -241 -77 -350 -168 -92 -76 -141 -110 -205
-141 -72 -35 -194 -62 -278 -62 -87 0 -104 -8 -99 -41 4 -32 60 -45 141 -32
34 6 67 9 72 6 6 -2 35 -54 65 -115 154 -312 432 -710 650 -929 95 -95 128
-123 191 -153 222 -109 426 -43 538 174 77 152 113 439 115 920 0 184 -2 383
-7 441 l-7 107 44 26 c50 29 106 92 106 118 0 9 -9 22 -20 28 -17 9 -27 4 -67
-35z m-126 -319 c4 -87 2 -136 -4 -136 -5 0 -35 9 -66 19 -212 73 -473 73
-688 0 -77 -26 -206 -89 -268 -131 -68 -46 -184 -152 -212 -192 -13 -20 -29
-36 -35 -36 -17 0 -136 225 -123 233 2 2 31 13 64 26 88 35 133 63 242 150 54
43 123 92 154 109 118 64 126 65 474 73 219 5 339 12 380 22 33 7 64 11 68 7
5 -4 11 -69 14 -144z m-147 -169 c47 -14 103 -33 124 -42 l39 -17 -7 -211
c-19 -596 -73 -836 -210 -941 -57 -43 -99 -56 -182 -56 -69 0 -86 4 -153 37
-116 58 -232 175 -423 428 -135 180 -268 385 -268 415 0 25 98 135 175 197 81
65 228 146 321 177 111 36 185 45 344 42 130 -3 169 -8 240 -29z"/>
</g>
</svg>
