<?xml version="1.0" encoding="utf-8"?>
<!-- Svg Vector Icons : http://www.onlinewebfonts.com/icon -->
<!DOCTYPE svg PUBLIC "-//W3C//DTD SVG 1.1//EN" "http://www.w3.org/Graphics/SVG/1.1/DTD/svg11.dtd">
<svg version="1.1" xmlns="http://www.w3.org/2000/svg" xmlns:xlink="http://www.w3.org/1999/xlink" x="0px" y="0px" viewBox="0 0 256 256" enable-background="new 0 0 256 256" xml:space="preserve">
<metadata> Svg Vector Icons : http://www.onlinewebfonts.com/icon </metadata>
<g><g><g><path fill="#000000" d="M121.6,10.4C99.1,11.7,77,19.7,57.8,33.8c-6.6,4.8-19.3,17.5-24.1,24.1c-10.7,14.6-17.7,30.3-21,46.5c-0.7,3.7-1.6,7.6-2,8.9c-1,3.2-1,27.3,0,29.7c0.4,0.9,1.2,4.1,1.7,7.3c3.3,17.4,10.5,33.6,21.9,48.9c4.6,6.2,16.5,18.1,22.8,22.8c29,21.7,64.7,29.1,99.2,20.4c41.8-10.5,75.4-44.1,85.8-85.8c0.7-2.7,1.5-6.5,1.8-8.4c0.3-1.9,0.9-4.3,1.3-5.3c1-2.7,1-26.6,0-29.3c-0.4-1-1-3.5-1.3-5.3c-2.7-17.1-10.8-35.6-22.2-50.8c-4.7-6.3-16.6-18.2-22.9-22.9C176.1,17.3,149,8.9,121.6,10.4z M138.9,19c32.9,3.3,62.4,20.9,80.6,48.4c3.5,5.2,8.6,15.3,11,21.3c2,5.1,4.9,16.1,5.4,20l0.3,2.6h-26h-25.9l-0.9-2.6c-0.4-1.4-1.8-4.4-2.9-6.8c-7.8-15.5-22.1-26.8-39.6-31.2c-3.7-0.9-5.7-1.1-13-1.1s-9.3,0.1-13,1.1c-14.3,3.6-26.8,12-35,23.5c-2.6,3.7-6.9,12-7.8,15.2l-0.5,1.9H45.7H19.8l0.3-2.6c0.5-3.9,3.5-14.9,5.4-19.9c5.6-14.8,13.4-26.6,24.9-38.2C62.3,38.8,74.2,31,89.3,25.3c8.1-3,20.2-5.8,29.1-6.5C122.9,18.4,134.2,18.5,138.9,19z M133.7,77.7c6.2,0.7,11.1,2.1,16.8,4.9c12.9,6.3,21.7,16.8,26.2,31.3c1.1,3.6,1.5,4.4,2.7,5c1.2,0.6,5.6,0.7,29.5,0.7c25.2,0,28.1,0.1,28.4,0.8c0.4,1,0.4,14.2,0,15.2c-0.3,0.7-3.3,0.8-28.4,0.8c-23.9,0-28.3,0.1-29.5,0.7c-1.2,0.6-1.6,1.4-2.7,4.9c-2.7,8.7-6.3,15.1-12.1,21.2c-19.4,20.5-53.6,20.5-73,0c-5.5-5.8-9.6-12.6-11.6-19.6c-1.4-4.8-1.8-5.7-2.9-6.3c-0.7-0.4-8.5-0.6-29.7-0.8l-28.6-0.2V128v-8.1l28.6-0.2c21.7-0.2,28.9-0.4,29.7-0.9c0.7-0.4,1.5-1.9,2.4-4.9c2.6-8.3,6.1-14.7,11.6-20.6c4.3-4.6,8.7-7.8,14.5-10.7C114.8,78.1,123.6,76.6,133.7,77.7z M72.1,146.7c1,3.2,5.3,11.5,7.9,15.2c7.8,10.9,20.5,19.6,34,23.2c4.4,1.2,5.6,1.3,14,1.3c8.2,0,9.6-0.1,13.8-1.3c13.4-3.7,25.3-11.6,33.5-22.4c2.8-3.7,6.8-11.2,8.3-15.4l0.9-2.6h25.9h25.9l-0.3,2.6c-0.5,4.2-3.2,14-5.3,19.6c-5.7,15.2-14.6,28.6-26.4,40c-13.6,13.1-29.9,22.3-48.3,27c-10.2,2.6-16,3.3-28.1,3.3c-12.2,0-17.5-0.7-28.1-3.5c-38-9.9-68.2-40.2-77.7-78.1c-0.8-3.2-1.6-7-1.8-8.4l-0.3-2.6h25.9h25.9L72.1,146.7z"/><path fill="#000000" d="M126.2,27.5c-2.5,1.1-3,4.4-0.9,6.5c1,1,1.7,1.2,4.1,1.2c8.4,0,19.2,1.9,28.4,5C172.1,45,184,52.6,195,64.1c5.7,5.9,7.2,6.6,9.6,4.7c1-0.8,1.3-1.5,1.3-3c0-1.7-0.4-2.4-3.6-6c-13.2-14.8-34.2-26.6-54.7-30.6C138.6,27.3,128.4,26.6,126.2,27.5z"/><path fill="#000000" d="M121.1,95.3c-6.8,1.4-14.6,6.3-19,11.9c-8.2,10.3-9.8,23.5-4.2,34.9c3.8,7.5,8.6,12.3,16.1,16.1c11.4,5.6,24.5,4,34.9-4.2c7.6-6,12.7-16.4,12.7-25.9c0-9.5-5.1-19.9-12.7-25.9C140.8,95.7,130.6,93.2,121.1,95.3z M135.2,103.6c4.2,1.1,7.5,3.1,10.9,6.4c5,5,7.2,10.4,7.2,18c0,7.6-2.1,13-7.2,18c-5,5-10.4,7.2-18,7.2c-7.7,0-13-2.1-18-7.2c-5-5-7.2-10.4-7.2-18c0-7.7,2.1-13,7.2-18c3.3-3.3,6.6-5.3,10.7-6.4C124.2,102.7,131.5,102.7,135.2,103.6z"/></g></g></g>
</svg>